<svg width="83" height="92" viewBox="0 0 83 92" fill="none" xmlns="http://www.w3.org/2000/svg">
<rect x="0.125" y="0.125" width="82.75" height="91.75" rx="11.875" fill="#FDFDFB" stroke="#232C27" stroke-width="0.25"/>
<g opacity="0.3">
<path opacity="0.3" d="M51.6158 19.4893C50.2217 19.4881 48.8851 18.9808 47.8993 18.0788C46.9135 17.1767 46.3591 15.9537 46.3577 14.678V8H22.862C21.0421 8 19.2967 8.66154 18.0099 9.83908C16.723 11.0166 16 12.6137 16 14.279V52.1303C16.0027 53.794 16.7269 55.3887 18.0134 56.5642C19.3 57.7397 21.0439 58.4 22.862 58.4H51.0676C52.8862 58.4 54.6304 57.7394 55.9171 56.5634C57.2038 55.3874 57.9276 53.7921 57.9296 52.128V19.4893H51.6158Z" fill="#005FAD"/>
</g>
<path d="M57.9297 19.4893H51.6159C50.2218 19.4881 48.8851 18.9808 47.8993 18.0788C46.9135 17.1767 46.3591 15.9537 46.3578 14.678V8L57.9297 19.4893Z" fill="#005FAD"/>
<path d="M62.9047 47.8066H31.0195C28.7577 47.8066 26.9242 49.4844 26.9242 51.554V60.2526C26.9242 62.3222 28.7577 64 31.0195 64H62.9047C65.1665 64 67 62.3222 67 60.2526V51.554C67 49.4844 65.1665 47.8066 62.9047 47.8066Z" fill="#005FAD"/>
<path d="M36.1603 57.7864V59.4827H34.2401V57.7864H36.1603Z" fill="white"/>
<path d="M38.9806 57.0233V59.4826H37.1241V52.4663H40.1281C41.041 52.4663 41.7354 52.6732 42.2114 53.087C42.453 53.3038 42.6418 53.565 42.7653 53.8533C42.8888 54.1417 42.9442 54.4506 42.9279 54.76C42.936 55.1681 42.8251 55.5708 42.6066 55.9266C42.3852 56.2749 42.0548 56.5545 41.6581 56.7293C41.181 56.9375 40.6564 57.0383 40.1281 57.0233H38.9806ZM41.041 54.76C41.041 54.1378 40.6687 53.8266 39.9241 53.8266H38.9806V55.6536H39.9241C40.6687 55.6599 41.041 55.362 41.041 54.76Z" fill="white"/>
<path d="M50.6494 59.4826H48.7956L45.6897 55.1753V59.4826H43.8358V52.4663H45.6897L48.793 56.8133V52.4663H50.6469L50.6494 59.4826Z" fill="white"/>
<path d="M57.894 53.0334C58.5128 53.4571 58.9285 54.0833 59.0542 54.7811H57.0907C56.9619 54.5311 56.7552 54.3217 56.4966 54.1791C56.2044 54.0205 55.8697 53.9397 55.5301 53.9457C55.2663 53.9357 55.0033 53.9788 54.7597 54.072C54.516 54.1651 54.2976 54.306 54.12 54.4847C53.7474 54.8944 53.5579 55.4179 53.5896 55.9501C53.5896 56.6174 53.7757 57.13 54.148 57.4877C54.3573 57.6736 54.6067 57.8174 54.8803 57.9098C55.1539 58.0022 55.4456 58.0413 55.7367 58.0244C56.1527 58.031 56.5598 57.9139 56.8969 57.6907C57.2403 57.4555 57.488 57.1221 57.6007 56.7434H55.2598V55.5231H59.1537V57.2334C59.0029 57.6507 58.7666 58.0379 58.4575 58.3744C58.1237 58.7366 57.7078 59.028 57.2386 59.2284C56.7067 59.4531 56.1261 59.5648 55.5403 59.5551C54.8286 59.5715 54.1248 59.4154 53.5003 59.1024C52.9289 58.8092 52.4636 58.3697 52.1616 57.8377C51.8384 57.2649 51.6762 56.6273 51.6898 55.9827C51.6745 55.3342 51.8367 54.6926 52.1616 54.1161C52.4632 53.5854 52.9264 53.1461 53.4952 52.8514C54.1106 52.5412 54.8048 52.3859 55.5072 52.4011C56.3575 52.3629 57.1974 52.5854 57.894 53.0334Z" fill="white"/>
<path d="M29.9485 23.568H26.4423V26.7763H29.9485V23.568Z" fill="#005FAD"/>
<path d="M33.4573 26.7764H29.951V29.9847H33.4573V26.7764Z" fill="#005FAD"/>
<path d="M36.9635 23.568H33.4573V26.7763H36.9635V23.568Z" fill="#005FAD"/>
<path d="M40.4698 26.7764H36.9635V29.9847H40.4698V26.7764Z" fill="#005FAD"/>
<path d="M43.9811 23.568H40.4749V26.7763H43.9811V23.568Z" fill="#005FAD"/>
<path d="M47.4875 26.7764H43.9812V29.9847H47.4875V26.7764Z" fill="#005FAD"/>
<path d="M29.9485 29.98H26.4423V33.1883H29.9485V29.98Z" fill="#005FAD"/>
<path d="M33.4573 33.1884H29.951V36.3967H33.4573V33.1884Z" fill="#005FAD"/>
<path d="M36.9635 29.98H33.4573V33.1883H36.9635V29.98Z" fill="#005FAD"/>
<path d="M40.4698 33.1884H36.9635V36.3967H40.4698V33.1884Z" fill="#005FAD"/>
<path d="M43.9811 29.98H40.4749V33.1883H43.9811V29.98Z" fill="#005FAD"/>
<path d="M47.4875 33.1884H43.9812V36.3967H47.4875V33.1884Z" fill="#005FAD"/>
<path d="M29.9485 36.4224H26.4423V39.6307H29.9485V36.4224Z" fill="#005FAD"/>
<path d="M33.4573 39.6307H29.951V42.8391H33.4573V39.6307Z" fill="#005FAD"/>
<path d="M36.9635 36.4224H33.4573V39.6307H36.9635V36.4224Z" fill="#005FAD"/>
<path d="M40.4698 39.6307H36.9635V42.8391H40.4698V39.6307Z" fill="#005FAD"/>
<path d="M43.9811 36.4224H40.4749V39.6307H43.9811V36.4224Z" fill="#005FAD"/>
<path d="M47.4875 39.6307H43.9812V42.8391H47.4875V39.6307Z" fill="#005FAD"/>
<path d="M8.78 72H9.97V79H8.78V72ZM12.0339 72H13.2339V79H12.0339V72ZM14.2939 79H12.7639V77.89H14.2639C14.6106 77.89 14.9306 77.84 15.2239 77.74C15.5172 77.64 15.7706 77.49 15.9839 77.29C16.2039 77.09 16.3739 76.84 16.4939 76.54C16.6206 76.24 16.6839 75.8933 16.6839 75.5C16.6839 75.1067 16.6206 74.76 16.4939 74.46C16.3739 74.16 16.2039 73.91 15.9839 73.71C15.7706 73.51 15.5172 73.36 15.2239 73.26C14.9306 73.16 14.6106 73.11 14.2639 73.11H12.7639V72H14.2939C15.0072 72 15.6339 72.1467 16.1739 72.44C16.7139 72.7267 17.1339 73.1333 17.4339 73.66C17.7406 74.18 17.8939 74.7933 17.8939 75.5C17.8939 76.2067 17.7406 76.8233 17.4339 77.35C17.1339 77.87 16.7139 78.2767 16.1739 78.57C15.6339 78.8567 15.0072 79 14.2939 79ZM23.9137 75.5C23.9137 75.9933 24.0237 76.4267 24.2437 76.8C24.4703 77.1733 24.7637 77.4633 25.1237 77.67C25.4903 77.87 25.887 77.97 26.3137 77.97C26.647 77.97 26.947 77.9267 27.2137 77.84C27.4803 77.7533 27.7203 77.6367 27.9337 77.49C28.1537 77.3367 28.3437 77.1667 28.5037 76.98V78.38C28.2103 78.62 27.8937 78.8033 27.5537 78.93C27.2137 79.0567 26.787 79.12 26.2737 79.12C25.7603 79.12 25.2803 79.0333 24.8337 78.86C24.3937 78.6867 24.0103 78.4367 23.6837 78.11C23.357 77.7833 23.1003 77.4 22.9137 76.96C22.7337 76.5133 22.6437 76.0267 22.6437 75.5C22.6437 74.9733 22.7337 74.49 22.9137 74.05C23.1003 73.6033 23.357 73.2167 23.6837 72.89C24.0103 72.5633 24.3937 72.3133 24.8337 72.14C25.2803 71.9667 25.7603 71.88 26.2737 71.88C26.787 71.88 27.2137 71.9433 27.5537 72.07C27.8937 72.1967 28.2103 72.38 28.5037 72.62V74.02C28.3437 73.8333 28.1537 73.6667 27.9337 73.52C27.7203 73.3667 27.4803 73.2467 27.2137 73.16C26.947 73.0733 26.647 73.03 26.3137 73.03C25.887 73.03 25.4903 73.1333 25.1237 73.34C24.7637 73.54 24.4703 73.8267 24.2437 74.2C24.0237 74.5667 23.9137 75 23.9137 75.5ZM31.0477 77.57C31.0477 77.7233 31.0844 77.8567 31.1577 77.97C31.2311 78.0767 31.3311 78.1567 31.4577 78.21C31.5911 78.2633 31.7411 78.29 31.9077 78.29C32.1211 78.29 32.3144 78.2467 32.4877 78.16C32.6677 78.0733 32.8111 77.9467 32.9177 77.78C33.0311 77.6067 33.0877 77.4067 33.0877 77.18L33.2477 77.78C33.2477 78.0733 33.1611 78.32 32.9877 78.52C32.8211 78.7133 32.6077 78.86 32.3477 78.96C32.0944 79.0533 31.8344 79.1 31.5677 79.1C31.2811 79.1 31.0144 79.0433 30.7677 78.93C30.5211 78.8167 30.3244 78.65 30.1777 78.43C30.0311 78.21 29.9577 77.9433 29.9577 77.63C29.9577 77.1833 30.1144 76.83 30.4277 76.57C30.7411 76.3033 31.1844 76.17 31.7577 76.17C32.0644 76.17 32.3277 76.2033 32.5477 76.27C32.7744 76.3367 32.9611 76.4167 33.1077 76.51C33.2544 76.5967 33.3577 76.6767 33.4177 76.75V77.3C33.2111 77.1533 32.9911 77.0467 32.7577 76.98C32.5244 76.9133 32.2777 76.88 32.0177 76.88C31.7911 76.88 31.6077 76.91 31.4677 76.97C31.3277 77.0233 31.2211 77.1 31.1477 77.2C31.0811 77.3 31.0477 77.4233 31.0477 77.57ZM30.7077 75.6L30.2677 74.84C30.4744 74.7133 30.7411 74.59 31.0677 74.47C31.4011 74.35 31.7811 74.29 32.2077 74.29C32.5877 74.29 32.9211 74.3467 33.2077 74.46C33.5011 74.5733 33.7311 74.7367 33.8977 74.95C34.0644 75.1567 34.1477 75.4133 34.1477 75.72V79H33.0877V75.93C33.0877 75.7833 33.0611 75.6633 33.0077 75.57C32.9611 75.4767 32.8944 75.4 32.8077 75.34C32.7211 75.28 32.6177 75.2367 32.4977 75.21C32.3777 75.1833 32.2477 75.17 32.1077 75.17C31.8944 75.17 31.6911 75.1967 31.4977 75.25C31.3111 75.2967 31.1477 75.3567 31.0077 75.43C30.8744 75.4967 30.7744 75.5533 30.7077 75.6ZM36.9768 74.4V79H35.9068V74.4H36.9768ZM38.3468 75.55C38.2468 75.47 38.1535 75.41 38.0668 75.37C37.9801 75.33 37.8701 75.31 37.7368 75.31C37.5568 75.31 37.4101 75.3567 37.2968 75.45C37.1835 75.5433 37.1001 75.6733 37.0468 75.84C37.0001 76 36.9768 76.19 36.9768 76.41L36.6168 76.2C36.6168 75.8333 36.6835 75.51 36.8168 75.23C36.9568 74.9433 37.1335 74.7167 37.3468 74.55C37.5668 74.3833 37.7935 74.3 38.0268 74.3C38.1935 74.3 38.3501 74.3267 38.4968 74.38C38.6435 74.4267 38.7668 74.5133 38.8668 74.64L38.3468 75.55ZM43.568 71.2H44.658V79H43.568V71.2ZM39.758 76.7C39.758 76.1933 39.8613 75.7633 40.068 75.41C40.2746 75.05 40.548 74.7767 40.888 74.59C41.2346 74.3967 41.6046 74.3 41.998 74.3C42.3846 74.3 42.7213 74.3967 43.008 74.59C43.3013 74.7833 43.5313 75.06 43.698 75.42C43.8713 75.7733 43.958 76.2 43.958 76.7C43.958 77.1933 43.8713 77.62 43.698 77.98C43.5313 78.34 43.3013 78.6167 43.008 78.81C42.7213 79.0033 42.3846 79.1 41.998 79.1C41.6046 79.1 41.2346 79.0067 40.888 78.82C40.548 78.6267 40.2746 78.35 40.068 77.99C39.8613 77.63 39.758 77.2 39.758 76.7ZM40.878 76.7C40.878 77.0067 40.9413 77.27 41.068 77.49C41.1946 77.71 41.3613 77.8767 41.568 77.99C41.7813 78.1033 42.0113 78.16 42.258 78.16C42.4646 78.16 42.668 78.1033 42.868 77.99C43.0746 77.8767 43.2413 77.7133 43.368 77.5C43.5013 77.28 43.568 77.0133 43.568 76.7C43.568 76.3867 43.5013 76.1233 43.368 75.91C43.2413 75.69 43.0746 75.5233 42.868 75.41C42.668 75.2967 42.4646 75.24 42.258 75.24C42.0113 75.24 41.7813 75.2967 41.568 75.41C41.3613 75.5233 41.1946 75.69 41.068 75.91C40.9413 76.13 40.878 76.3933 40.878 76.7ZM46.6466 78.49C46.6466 78.2967 46.7133 78.1333 46.8466 78C46.9866 77.86 47.1533 77.79 47.3466 77.79C47.5533 77.79 47.7233 77.86 47.8566 78C47.99 78.1333 48.0566 78.2967 48.0566 78.49C48.0566 78.6767 47.99 78.84 47.8566 78.98C47.7233 79.12 47.5533 79.19 47.3466 79.19C47.1533 79.19 46.9866 79.12 46.8466 78.98C46.7133 78.84 46.6466 78.6767 46.6466 78.49ZM54.6306 81.2H53.5406V74.4H54.6306V81.2ZM58.4406 76.7C58.4406 77.2067 58.3373 77.6433 58.1306 78.01C57.924 78.37 57.6506 78.6467 57.3106 78.84C56.9706 79.0267 56.6006 79.12 56.2006 79.12C55.8073 79.12 55.464 79.0233 55.1706 78.83C54.884 78.63 54.6606 78.35 54.5006 77.99C54.3473 77.6233 54.2706 77.1933 54.2706 76.7C54.2706 76.2 54.3473 75.77 54.5006 75.41C54.6606 75.05 54.884 74.7733 55.1706 74.58C55.464 74.38 55.8073 74.28 56.2006 74.28C56.6006 74.28 56.9706 74.3767 57.3106 74.57C57.6506 74.7567 57.924 75.03 58.1306 75.39C58.3373 75.75 58.4406 76.1867 58.4406 76.7ZM57.3206 76.7C57.3206 76.3933 57.2573 76.1333 57.1306 75.92C57.004 75.7 56.834 75.5367 56.6206 75.43C56.414 75.3167 56.184 75.26 55.9306 75.26C55.724 75.26 55.5206 75.3167 55.3206 75.43C55.1206 75.5367 54.954 75.6967 54.8206 75.91C54.694 76.1233 54.6306 76.3867 54.6306 76.7C54.6306 77.0133 54.694 77.2767 54.8206 77.49C54.954 77.7033 55.1206 77.8667 55.3206 77.98C55.5206 78.0867 55.724 78.14 55.9306 78.14C56.184 78.14 56.414 78.0867 56.6206 77.98C56.834 77.8667 57.004 77.7033 57.1306 77.49C57.2573 77.27 57.3206 77.0067 57.3206 76.7ZM62.9293 76.2C62.9293 75.86 62.8593 75.6033 62.7193 75.43C62.5793 75.2567 62.3626 75.17 62.0693 75.17C61.8693 75.17 61.6926 75.2133 61.5393 75.3C61.386 75.38 61.266 75.5 61.1793 75.66C61.0926 75.8133 61.0493 75.9933 61.0493 76.2V79H59.9693V74.4H61.0493V75.11C61.196 74.8367 61.3826 74.6333 61.6093 74.5C61.8426 74.3667 62.1193 74.3 62.4393 74.3C62.9593 74.3 63.356 74.46 63.6293 74.78C63.9026 75.0933 64.0393 75.5267 64.0393 76.08V79H62.9293V76.2ZM65.6585 79.31H66.7285C66.7352 79.5167 66.7918 79.7033 66.8985 79.87C67.0118 80.0367 67.1652 80.1667 67.3585 80.26C67.5518 80.3533 67.7752 80.4 68.0285 80.4C68.2552 80.4 68.4718 80.3467 68.6785 80.24C68.8852 80.1333 69.0518 79.97 69.1785 79.75C69.3118 79.53 69.3785 79.2467 69.3785 78.9V74.4H70.4385V78.9C70.4385 79.4533 70.3252 79.91 70.0985 80.27C69.8785 80.63 69.5885 80.8967 69.2285 81.07C68.8685 81.25 68.4785 81.34 68.0585 81.34C67.5585 81.34 67.1318 81.2533 66.7785 81.08C66.4252 80.9133 66.1518 80.6767 65.9585 80.37C65.7718 80.0633 65.6718 79.71 65.6585 79.31ZM65.5685 76.68C65.5685 76.1667 65.6718 75.7367 65.8785 75.39C66.0852 75.0367 66.3585 74.7667 66.6985 74.58C67.0452 74.3933 67.4152 74.3 67.8085 74.3C68.1952 74.3 68.5318 74.3967 68.8185 74.59C69.1118 74.7767 69.3418 75.0467 69.5085 75.4C69.6818 75.7533 69.7685 76.18 69.7685 76.68C69.7685 77.1733 69.6818 77.5967 69.5085 77.95C69.3418 78.3033 69.1118 78.5767 68.8185 78.77C68.5318 78.9567 68.1952 79.05 67.8085 79.05C67.4152 79.05 67.0452 78.9567 66.6985 78.77C66.3585 78.5833 66.0852 78.3133 65.8785 77.96C65.6718 77.6067 65.5685 77.18 65.5685 76.68ZM66.6885 76.68C66.6885 76.9867 66.7518 77.2467 66.8785 77.46C67.0052 77.6733 67.1718 77.8367 67.3785 77.95C67.5918 78.0567 67.8218 78.11 68.0685 78.11C68.2752 78.11 68.4785 78.0567 68.6785 77.95C68.8852 77.8433 69.0518 77.6833 69.1785 77.47C69.3118 77.25 69.3785 76.9867 69.3785 76.68C69.3785 76.44 69.3385 76.2333 69.2585 76.06C69.1852 75.88 69.0852 75.73 68.9585 75.61C68.8318 75.4833 68.6885 75.39 68.5285 75.33C68.3752 75.27 68.2218 75.24 68.0685 75.24C67.8218 75.24 67.5918 75.2967 67.3785 75.41C67.1718 75.5167 67.0052 75.6767 66.8785 75.89C66.7518 76.1033 66.6885 76.3667 66.6885 76.68Z" fill="#232C27"/>
</svg>
