<svg width="83" height="92" viewBox="0 0 83 92" fill="none" xmlns="http://www.w3.org/2000/svg">
<rect x="0.125" y="0.125" width="82.75" height="91.75" rx="11.875" fill="#FDFDFB" stroke="#232C27" stroke-width="0.25"/>
<g opacity="0.3">
<path opacity="0.3" d="M51.6141 19.4912C50.22 19.49 48.8835 18.9826 47.8977 18.0807C46.912 17.1787 46.3576 15.9556 46.3562 14.68V8H22.8643C21.963 7.99969 21.0704 8.16184 20.2376 8.47724C19.4048 8.79264 18.6481 9.2551 18.0107 9.83816C17.3732 10.4212 16.8676 11.1135 16.5226 11.8754C16.1776 12.6373 16 13.454 16 14.2787V52.1285C16 52.9532 16.1776 53.7699 16.5226 54.5318C16.8676 55.2938 17.3732 55.986 18.0107 56.5691C18.6481 57.1521 19.4048 57.6145 20.2376 57.9299C21.0704 58.2453 21.963 58.4076 22.8643 58.4072H51.0658C51.9669 58.4072 52.8592 58.2449 53.6917 57.9293C54.5242 57.6138 55.2807 57.1513 55.9178 56.5682C56.555 55.9852 57.0604 55.293 57.4052 54.5313C57.7501 53.7695 57.9276 52.953 57.9276 52.1285V19.4912H51.6141Z" fill="#0072FF"/>
</g>
<path d="M57.9275 19.4912H51.614C50.22 19.49 48.8834 18.9826 47.8977 18.0807C46.9119 17.1787 46.3576 15.9556 46.3562 14.68V8L57.9275 19.4912Z" fill="#0072FF"/>
<path d="M49.3014 27.5362H22.9765C22.7236 27.5362 22.481 27.4443 22.3022 27.2806C22.1233 27.117 22.0228 26.895 22.0228 26.6636C22.0225 26.5488 22.0469 26.435 22.0947 26.3289C22.1425 26.2228 22.2127 26.1263 22.3013 26.045C22.3898 25.9637 22.4951 25.8992 22.611 25.8552C22.7268 25.8112 22.851 25.7886 22.9765 25.7886H49.3014C49.555 25.7886 49.7982 25.8808 49.9775 26.0449C50.1568 26.209 50.2576 26.4315 50.2576 26.6636C50.2569 26.8952 50.1559 27.1172 49.9766 27.2808C49.7974 27.4444 49.5546 27.5362 49.3014 27.5362Z" fill="#0072FF"/>
<path d="M49.3014 32.7557H22.9765C22.7236 32.7557 22.481 32.6638 22.3022 32.5001C22.1233 32.3365 22.0228 32.1145 22.0228 31.8831C22.0225 31.7683 22.0469 31.6545 22.0947 31.5484C22.1425 31.4422 22.2127 31.3457 22.3013 31.2645C22.3898 31.1832 22.4951 31.1187 22.611 31.0747C22.7268 31.0307 22.851 31.0081 22.9765 31.0081H49.3014C49.555 31.0081 49.7982 31.1002 49.9775 31.2643C50.1568 31.4284 50.2576 31.651 50.2576 31.8831C50.2569 32.1147 50.1559 32.3366 49.9766 32.5002C49.7974 32.6638 49.5546 32.7557 49.3014 32.7557Z" fill="#0072FF"/>
<path d="M49.3014 37.9752H22.9765C22.851 37.9752 22.7268 37.9526 22.611 37.9086C22.4951 37.8646 22.3898 37.8001 22.3013 37.7188C22.2127 37.6375 22.1425 37.541 22.0947 37.4349C22.0469 37.3287 22.0225 37.215 22.0228 37.1002C22.0228 36.8688 22.1233 36.6468 22.3022 36.4831C22.481 36.3195 22.7236 36.2275 22.9765 36.2275H49.3014C49.5546 36.2275 49.7974 36.3194 49.9766 36.483C50.1559 36.6466 50.2569 36.8685 50.2576 37.1002C50.2576 37.3323 50.1568 37.5548 49.9775 37.7189C49.7982 37.883 49.555 37.9752 49.3014 37.9752Z" fill="#0072FF"/>
<path d="M38.9183 43.1947H22.9765C22.851 43.1947 22.7268 43.172 22.611 43.128C22.4951 43.084 22.3898 43.0195 22.3013 42.9382C22.2127 42.8569 22.1425 42.7605 22.0947 42.6544C22.0469 42.5482 22.0225 42.4345 22.0228 42.3197C22.0228 42.0882 22.1233 41.8662 22.3022 41.7026C22.481 41.5389 22.7236 41.447 22.9765 41.447H38.9183C39.1712 41.447 39.4138 41.5389 39.5926 41.7026C39.7715 41.8662 39.8719 42.0882 39.8719 42.3197C39.8723 42.4345 39.8479 42.5482 39.8001 42.6544C39.7523 42.7605 39.6821 42.8569 39.5935 42.9382C39.505 43.0195 39.3997 43.084 39.2838 43.128C39.168 43.172 39.0437 43.1947 38.9183 43.1947Z" fill="#0072FF"/>
<path d="M62.905 47.8074H31.0213C28.7597 47.8074 26.9263 49.485 26.9263 51.5546V60.2529C26.9263 62.3224 28.7597 64 31.0213 64H62.905C65.1666 64 67 62.3224 67 60.2529V51.5546C67 49.485 65.1666 47.8074 62.905 47.8074Z" fill="#0072FF"/>
<path d="M35.4353 57.7866V59.483H33.5151V57.7866H35.4353Z" fill="white"/>
<path d="M42.8144 57.7912C42.4952 58.3218 42.0129 58.755 41.4273 59.0372C40.7683 59.3456 40.0356 59.4988 39.2956 59.4828H36.3989V52.4668H39.2956C40.0361 52.4501 40.7699 52.5999 41.4324 52.9031C42.0156 53.1802 42.4964 53.6088 42.8144 54.1351C43.1441 54.6952 43.3101 55.3237 43.2963 55.9597C43.3095 56.5979 43.1435 57.2285 42.8144 57.7912ZM40.8204 57.4389C41.0277 57.2442 41.1883 57.0121 41.2919 56.7574C41.3955 56.5027 41.4399 56.231 41.4222 55.9597C41.44 55.6887 41.3957 55.4173 41.2921 55.1629C41.1884 54.9086 41.0278 54.6769 40.8204 54.4827C40.3559 54.11 39.7491 53.9205 39.1324 53.9554H38.2578V57.9639H39.1349C39.7502 57.9979 40.3555 57.8093 40.8204 57.4389Z" fill="white"/>
<path d="M49.9618 52.8191C50.5452 53.1223 51.0273 53.5651 51.3566 54.1C51.7015 54.665 51.8774 55.3032 51.8665 55.9503C51.8782 56.5989 51.7023 57.2388 51.3566 57.8052C51.0263 58.3422 50.5423 58.7866 49.9567 59.0908C49.3606 59.4023 48.6848 59.5633 47.9984 59.5575C47.312 59.563 46.6363 59.402 46.0401 59.0908C45.4546 58.7873 44.9713 58.3426 44.6427 57.8052C44.2959 57.2393 44.1199 56.599 44.1328 55.9503C44.1195 55.303 44.2956 54.6642 44.6427 54.1C44.973 53.565 45.456 53.1222 46.0401 52.8191C46.6363 52.5079 47.312 52.3469 47.9984 52.3525C48.6864 52.3465 49.3639 52.5075 49.9618 52.8191ZM46.5449 54.4757C46.1688 54.8874 45.9774 55.4144 46.0095 55.9503C45.9773 56.484 46.1688 57.0089 46.5449 57.4179C46.7282 57.6001 46.9528 57.7434 47.203 57.8377C47.4532 57.932 47.723 57.9751 47.9933 57.9638C48.2628 57.9744 48.5315 57.9311 48.7808 57.8368C49.0301 57.7425 49.2538 57.5995 49.4365 57.4179C49.8144 57.0096 50.0078 56.4846 49.9771 55.9503C50.0077 55.4167 49.8164 54.8924 49.4416 54.4827C49.2585 54.3003 49.0339 54.157 48.7836 54.0626C48.5334 53.9683 48.2636 53.9253 47.9933 53.9367C47.7236 53.9253 47.4545 53.9677 47.2044 54.0607C46.9544 54.1538 46.7294 54.2953 46.5449 54.4757Z" fill="white"/>
<path d="M58.8327 53.1014C59.4794 53.5829 59.9193 54.2581 60.0745 55.0077H58.1111C57.9786 54.697 57.7466 54.4303 57.4456 54.2424C57.1282 54.0533 56.7558 53.9565 56.3772 53.9647C56.1272 53.9574 55.8787 54.0028 55.651 54.0975C55.4232 54.1922 55.2224 54.3336 55.064 54.5107C54.7089 54.9263 54.528 55.4444 54.554 55.9713C54.5281 56.4961 54.7091 57.012 55.064 57.4249C55.2237 57.6003 55.425 57.7399 55.6525 57.8333C55.8801 57.9267 56.1279 57.9713 56.3772 57.9639C56.7559 57.9731 57.1287 57.8762 57.4456 57.6862C57.745 57.5017 57.9768 57.2392 58.1111 56.9326H60.0745C59.9167 57.68 59.4772 58.353 58.8327 58.8342C58.1391 59.3188 57.2823 59.5664 56.4103 59.5342C55.7233 59.5474 55.0451 59.391 54.4469 59.0815C53.8871 58.7838 53.433 58.3447 53.1388 57.8169C52.8228 57.2379 52.6653 56.5974 52.6799 55.9503C52.6655 55.3033 52.823 54.6627 53.1388 54.0837C53.433 53.5559 53.8871 53.1169 54.4469 52.8191C55.0451 52.5096 55.7233 52.3532 56.4103 52.3664C57.2868 52.3452 58.1437 52.6053 58.8327 53.1014Z" fill="white"/>
<path d="M9.25 75.79V74.7H14.24V75.79H9.25ZM13.48 72H14.66V79H13.48V72ZM8.78 72H9.96V79H8.78V72ZM18.6314 79.1C18.1647 79.1 17.7514 79 17.3914 78.8C17.0381 78.6 16.7647 78.32 16.5714 77.96C16.3781 77.6 16.2814 77.18 16.2814 76.7C16.2814 76.2133 16.3781 75.79 16.5714 75.43C16.7714 75.07 17.0514 74.7933 17.4114 74.6C17.7714 74.4 18.1947 74.3 18.6814 74.3C19.1681 74.3 19.5814 74.3933 19.9214 74.58C20.2614 74.7667 20.5214 75.0367 20.7014 75.39C20.8881 75.7367 20.9814 76.1567 20.9814 76.65C20.9814 76.7033 20.9781 76.76 20.9714 76.82C20.9714 76.88 20.9681 76.9233 20.9614 76.95H16.9214V76.21H20.0414L19.7114 76.67C19.7314 76.63 19.7514 76.5767 19.7714 76.51C19.7981 76.4367 19.8114 76.3767 19.8114 76.33C19.8114 76.0833 19.7614 75.87 19.6614 75.69C19.5681 75.51 19.4347 75.37 19.2614 75.27C19.0947 75.17 18.8981 75.12 18.6714 75.12C18.3981 75.12 18.1647 75.18 17.9714 75.3C17.7781 75.42 17.6314 75.5933 17.5314 75.82C17.4314 76.0467 17.3781 76.3267 17.3714 76.66C17.3714 76.9933 17.4214 77.2767 17.5214 77.51C17.6214 77.7367 17.7681 77.91 17.9614 78.03C18.1614 78.15 18.4014 78.21 18.6814 78.21C18.9747 78.21 19.2314 78.15 19.4514 78.03C19.6714 77.91 19.8547 77.7267 20.0014 77.48L20.9314 77.86C20.6914 78.2733 20.3814 78.5833 20.0014 78.79C19.6214 78.9967 19.1647 79.1 18.6314 79.1ZM23.1923 77.57C23.1923 77.7233 23.2289 77.8567 23.3023 77.97C23.3756 78.0767 23.4756 78.1567 23.6023 78.21C23.7356 78.2633 23.8856 78.29 24.0523 78.29C24.2656 78.29 24.4589 78.2467 24.6323 78.16C24.8123 78.0733 24.9556 77.9467 25.0623 77.78C25.1756 77.6067 25.2323 77.4067 25.2323 77.18L25.3923 77.78C25.3923 78.0733 25.3056 78.32 25.1323 78.52C24.9656 78.7133 24.7523 78.86 24.4923 78.96C24.2389 79.0533 23.9789 79.1 23.7123 79.1C23.4256 79.1 23.1589 79.0433 22.9123 78.93C22.6656 78.8167 22.4689 78.65 22.3223 78.43C22.1756 78.21 22.1023 77.9433 22.1023 77.63C22.1023 77.1833 22.2589 76.83 22.5723 76.57C22.8856 76.3033 23.3289 76.17 23.9023 76.17C24.2089 76.17 24.4723 76.2033 24.6923 76.27C24.9189 76.3367 25.1056 76.4167 25.2523 76.51C25.3989 76.5967 25.5023 76.6767 25.5623 76.75V77.3C25.3556 77.1533 25.1356 77.0467 24.9023 76.98C24.6689 76.9133 24.4223 76.88 24.1623 76.88C23.9356 76.88 23.7523 76.91 23.6123 76.97C23.4723 77.0233 23.3656 77.1 23.2923 77.2C23.2256 77.3 23.1923 77.4233 23.1923 77.57ZM22.8523 75.6L22.4123 74.84C22.6189 74.7133 22.8856 74.59 23.2123 74.47C23.5456 74.35 23.9256 74.29 24.3523 74.29C24.7323 74.29 25.0656 74.3467 25.3523 74.46C25.6456 74.5733 25.8756 74.7367 26.0423 74.95C26.2089 75.1567 26.2923 75.4133 26.2923 75.72V79H25.2323V75.93C25.2323 75.7833 25.2056 75.6633 25.1523 75.57C25.1056 75.4767 25.0389 75.4 24.9523 75.34C24.8656 75.28 24.7623 75.2367 24.6423 75.21C24.5223 75.1833 24.3923 75.17 24.2523 75.17C24.0389 75.17 23.8356 75.1967 23.6423 75.25C23.4556 75.2967 23.2923 75.3567 23.1523 75.43C23.0189 75.4967 22.9189 75.5533 22.8523 75.6ZM28.0513 71.2H29.1313V79H28.0513V71.2ZM30.3723 74.4H32.9823V75.35H30.3723V74.4ZM31.1423 72.8H32.2123V79H31.1423V72.8ZM35.3071 71.2V79H34.2271V71.2H35.3071ZM37.1871 76.2C37.1871 75.86 37.1171 75.6033 36.9771 75.43C36.8438 75.2567 36.6271 75.17 36.3271 75.17C36.1271 75.17 35.9504 75.2133 35.7971 75.3C35.6438 75.3867 35.5238 75.5067 35.4371 75.66C35.3504 75.8133 35.3071 75.9933 35.3071 76.2H35.0471C35.0471 75.8333 35.1138 75.5067 35.2471 75.22C35.3804 74.9333 35.5671 74.7033 35.8071 74.53C36.0538 74.3567 36.3504 74.27 36.6971 74.27C37.0371 74.27 37.3238 74.3367 37.5571 74.47C37.7971 74.6033 37.9771 74.8033 38.0971 75.07C38.2171 75.33 38.2771 75.6567 38.2771 76.05V79H37.1871V76.2ZM40.297 78.49C40.297 78.2967 40.3637 78.1333 40.497 78C40.637 77.86 40.8037 77.79 40.997 77.79C41.2037 77.79 41.3737 77.86 41.507 78C41.6404 78.1333 41.707 78.2967 41.707 78.49C41.707 78.6767 41.6404 78.84 41.507 78.98C41.3737 79.12 41.2037 79.19 40.997 79.19C40.8037 79.19 40.637 79.12 40.497 78.98C40.3637 78.84 40.297 78.6767 40.297 78.49ZM43.883 78.49C43.883 78.2967 43.9496 78.1333 44.083 78C44.223 77.86 44.3896 77.79 44.583 77.79C44.7896 77.79 44.9596 77.86 45.093 78C45.2263 78.1333 45.293 78.2967 45.293 78.49C45.293 78.6767 45.2263 78.84 45.093 78.98C44.9596 79.12 44.7896 79.19 44.583 79.19C44.3896 79.19 44.223 79.12 44.083 78.98C43.9496 78.84 43.883 78.6767 43.883 78.49ZM47.4689 78.49C47.4689 78.2967 47.5356 78.1333 47.6689 78C47.8089 77.86 47.9756 77.79 48.1689 77.79C48.3756 77.79 48.5456 77.86 48.6789 78C48.8122 78.1333 48.8789 78.2967 48.8789 78.49C48.8789 78.6767 48.8122 78.84 48.6789 78.98C48.5456 79.12 48.3756 79.19 48.1689 79.19C47.9756 79.19 47.8089 79.12 47.6689 78.98C47.5356 78.84 47.4689 78.6767 47.4689 78.49ZM55.4529 81.2H54.3629V74.4H55.4529V81.2ZM59.2629 76.7C59.2629 77.2067 59.1596 77.6433 58.9529 78.01C58.7462 78.37 58.4729 78.6467 58.1329 78.84C57.7929 79.0267 57.4229 79.12 57.0229 79.12C56.6296 79.12 56.2862 79.0233 55.9929 78.83C55.7062 78.63 55.4829 78.35 55.3229 77.99C55.1696 77.6233 55.0929 77.1933 55.0929 76.7C55.0929 76.2 55.1696 75.77 55.3229 75.41C55.4829 75.05 55.7062 74.7733 55.9929 74.58C56.2862 74.38 56.6296 74.28 57.0229 74.28C57.4229 74.28 57.7929 74.3767 58.1329 74.57C58.4729 74.7567 58.7462 75.03 58.9529 75.39C59.1596 75.75 59.2629 76.1867 59.2629 76.7ZM58.1429 76.7C58.1429 76.3933 58.0796 76.1333 57.9529 75.92C57.8262 75.7 57.6562 75.5367 57.4429 75.43C57.2362 75.3167 57.0062 75.26 56.7529 75.26C56.5462 75.26 56.3429 75.3167 56.1429 75.43C55.9429 75.5367 55.7762 75.6967 55.6429 75.91C55.5162 76.1233 55.4529 76.3867 55.4529 76.7C55.4529 77.0133 55.5162 77.2767 55.6429 77.49C55.7762 77.7033 55.9429 77.8667 56.1429 77.98C56.3429 78.0867 56.5462 78.14 56.7529 78.14C57.0062 78.14 57.2362 78.0867 57.4429 77.98C57.6562 77.8667 57.8262 77.7033 57.9529 77.49C58.0796 77.27 58.1429 77.0067 58.1429 76.7ZM63.7516 76.2C63.7516 75.86 63.6816 75.6033 63.5416 75.43C63.4016 75.2567 63.1849 75.17 62.8916 75.17C62.6916 75.17 62.5149 75.2133 62.3616 75.3C62.2082 75.38 62.0882 75.5 62.0016 75.66C61.9149 75.8133 61.8716 75.9933 61.8716 76.2V79H60.7916V74.4H61.8716V75.11C62.0182 74.8367 62.2049 74.6333 62.4316 74.5C62.6649 74.3667 62.9416 74.3 63.2616 74.3C63.7816 74.3 64.1782 74.46 64.4516 74.78C64.7249 75.0933 64.8616 75.5267 64.8616 76.08V79H63.7516V76.2ZM66.4808 79.31H67.5508C67.5574 79.5167 67.6141 79.7033 67.7208 79.87C67.8341 80.0367 67.9874 80.1667 68.1808 80.26C68.3741 80.3533 68.5974 80.4 68.8508 80.4C69.0774 80.4 69.2941 80.3467 69.5008 80.24C69.7074 80.1333 69.8741 79.97 70.0008 79.75C70.1341 79.53 70.2008 79.2467 70.2008 78.9V74.4H71.2608V78.9C71.2608 79.4533 71.1474 79.91 70.9208 80.27C70.7008 80.63 70.4108 80.8967 70.0508 81.07C69.6908 81.25 69.3008 81.34 68.8808 81.34C68.3808 81.34 67.9541 81.2533 67.6008 81.08C67.2474 80.9133 66.9741 80.6767 66.7808 80.37C66.5941 80.0633 66.4941 79.71 66.4808 79.31ZM66.3908 76.68C66.3908 76.1667 66.4941 75.7367 66.7008 75.39C66.9074 75.0367 67.1808 74.7667 67.5208 74.58C67.8674 74.3933 68.2374 74.3 68.6308 74.3C69.0174 74.3 69.3541 74.3967 69.6408 74.59C69.9341 74.7767 70.1641 75.0467 70.3308 75.4C70.5041 75.7533 70.5908 76.18 70.5908 76.68C70.5908 77.1733 70.5041 77.5967 70.3308 77.95C70.1641 78.3033 69.9341 78.5767 69.6408 78.77C69.3541 78.9567 69.0174 79.05 68.6308 79.05C68.2374 79.05 67.8674 78.9567 67.5208 78.77C67.1808 78.5833 66.9074 78.3133 66.7008 77.96C66.4941 77.6067 66.3908 77.18 66.3908 76.68ZM67.5108 76.68C67.5108 76.9867 67.5741 77.2467 67.7008 77.46C67.8274 77.6733 67.9941 77.8367 68.2008 77.95C68.4141 78.0567 68.6441 78.11 68.8908 78.11C69.0974 78.11 69.3008 78.0567 69.5008 77.95C69.7074 77.8433 69.8741 77.6833 70.0008 77.47C70.1341 77.25 70.2008 76.9867 70.2008 76.68C70.2008 76.44 70.1608 76.2333 70.0808 76.06C70.0074 75.88 69.9074 75.73 69.7808 75.61C69.6541 75.4833 69.5108 75.39 69.3508 75.33C69.1974 75.27 69.0441 75.24 68.8908 75.24C68.6441 75.24 68.4141 75.2967 68.2008 75.41C67.9941 75.5167 67.8274 75.6767 67.7008 75.89C67.5741 76.1033 67.5108 76.3667 67.5108 76.68Z" fill="#232C27"/>
</svg>
